<?xml version="1.0" encoding="UTF-8" standalone="no"?><!DOCTYPE svg PUBLIC "-//W3C//DTD SVG 1.1//EN" "http://www.w3.org/Graphics/SVG/1.1/DTD/svg11.dtd"><svg width="100%" height="100%" viewBox="0 0 1227 277" version="1.1" xmlns="http://www.w3.org/2000/svg" xmlns:xlink="http://www.w3.org/1999/xlink" xml:space="preserve" xmlns:serif="http://www.serif.com/" style="fill-rule:evenodd;clip-rule:evenodd;stroke-linejoin:round;stroke-miterlimit:2;"><path d="M342.558,130.958c-3.613,1.129 -9.258,2.254 -14.221,2.254c-18.062,0 -31.837,-14.225 -31.837,-50.588c0,-37.717 15.129,-52.171 31.837,-52.171c6.542,0 10.383,1.35 13.771,2.938l4.967,-24.813c-2.933,-2.029 -10.158,-4.062 -20.546,-4.062c-29.575,0 -61.383,22.329 -61.383,79.688c0,43.142 18.492,75.171 57.321,75.171c10.383,0 18.737,-1.579 23.029,-3.604l-2.938,-24.812" style="fill:#08385a;fill-rule:nonzero;"/><path d="M396.533,68.163c9.95,0 12.433,19.196 12.433,34.329c0,16.271 -2.483,34.787 -11.979,34.787c-10.621,0 -13.558,-15.808 -13.558,-34.787c0,-15.133 2.258,-34.329 13.104,-34.329Zm0.229,-22.325c-21.908,0 -42.658,17.592 -42.658,57.333c0,35.912 15.792,56.662 42.204,56.662c16.721,0 42.208,-11.279 42.208,-57.342c0,-34.779 -15.788,-56.654 -41.754,-56.654" style="fill:#08385a;fill-rule:nonzero;"/><path d="M455.254,158.025l29.321,0l0,-69.546c0,-3.158 0.454,-6.321 1.129,-8.35c2.042,-6.554 6.562,-9.937 11.083,-9.937c9.267,0 10.171,10.612 10.171,18.512l0,69.321l29.321,0l0,-69.996c0,-2.938 0.458,-6.096 0.908,-7.679c2.033,-6.546 5.875,-10.158 11.075,-10.158c9.046,0 10.4,10.158 10.4,22.804l0,65.029l29.321,0l0,-69.996c0,-26.633 -8.792,-42.196 -28.417,-42.196c-5.65,0 -11.075,1.35 -15.596,3.837c-4.296,2.708 -8.367,6.763 -11.071,11.046l-0.454,0c-3.833,-9.242 -11.725,-14.883 -24.133,-14.883c-11.525,0 -20.796,6.317 -26.442,14.662l-0.454,0l-1.35,-12.854l-25.717,0c0.229,10.375 0.904,20.971 0.904,33.162l0,77.221" style="fill:#08385a;fill-rule:nonzero;"/><path d="M643.529,158.025l0,-89.412l19.196,0l0,-20.971l-19.196,0l0,-5.2c0,-9.717 3.617,-18.313 13.546,-18.313c3.617,0 6.775,0.454 9.033,1.358l3.388,-23.004c-4.288,-1.35 -10.163,-2.483 -17.837,-2.483c-10.383,0 -19.858,3.388 -26.4,10.15c-8.8,9.021 -11.275,20.533 -11.275,32.971l0,4.521l-14.904,0l0,20.971l14.904,0l0,89.412l29.546,0" style="fill:#08385a;fill-rule:nonzero;"/><path d="M710.154,68.158c9.942,0 12.429,19.2 12.429,34.333c0,16.271 -2.487,34.787 -11.979,34.787c-10.625,0 -13.562,-15.808 -13.562,-34.787c0,-15.133 2.258,-34.333 13.112,-34.333Zm0.221,-22.321c-21.904,0 -42.658,17.592 -42.658,57.333c0,35.912 15.788,56.662 42.208,56.662c16.721,0 42.208,-11.279 42.208,-57.342c0,-34.779 -15.792,-56.654 -41.758,-56.654" style="fill:#08385a;fill-rule:nonzero;"/><path d="M768.646,158.025l29.775,0l0,-55.983c0,-4.758 0.454,-8.596 1.129,-11.075c3.383,-11.517 11.737,-15.804 18.062,-15.804c2.479,0 4.512,0 6.317,0.45l0,-29.321c-1.804,-0.458 -3.383,-0.458 -6.317,-0.458c-8.129,0 -16.938,6.088 -21.9,17.825l-0.675,0l-1.579,-16.017l-25.717,0c0.45,10.158 0.904,22.117 0.904,33.187l0,77.196" style="fill:#08385a;fill-rule:nonzero;"/><path d="M844.508,24.837l0,22.804l-13.1,0l0,20.971l13.1,0l0,52.179c0,17.383 3.379,25.725 9.475,31.592c5.183,4.962 12.629,6.992 21.2,6.992c7.908,0 13.996,-0.904 18.067,-2.029l-0.229,-23.004c-2.483,0.454 -4.742,0.675 -7.671,0.675c-5.875,0 -11.292,-3.158 -11.292,-16.037l0,-50.367l21.675,0l0,-20.971l-21.675,0l0,-29.804l-29.55,7" style="fill:#08385a;fill-rule:nonzero;"/><path d="M912.242,158.025l68.608,0l0,-25.037l-39.062,0l0,-127.117l-29.546,0l0,152.154" style="fill:#08385a;fill-rule:nonzero;"/><path d="M1009.771,2.258c-8.121,0 -15.346,6.092 -15.117,16.021c-0.229,9.471 6.542,16.012 14.663,16.012c9.025,0 15.792,-6.542 15.562,-16.012c0,-9.929 -6.538,-16.021 -15.108,-16.021Zm-14.442,155.767l29.55,0l0,-110.383l-29.55,0l0,110.383Z" style="fill:#08385a;fill-rule:nonzero;"/><path d="M1045.679,158.025l29.55,0l0,-67.283c0,-4.296 0.679,-7.904 1.588,-10.162c2.033,-6.546 6.104,-9.933 11.075,-9.933c8.587,0 10.846,8.804 10.846,18.288l0,69.092l29.55,0l0,-70.9c0,-24.6 -8.346,-41.292 -29.321,-41.292c-11.529,0 -21.025,5.642 -26.896,14.438l-0.45,0l-1.354,-12.629l-25.492,0c0.229,10.383 0.904,20.996 0.904,33.187l0,77.196" style="fill:#08385a;fill-rule:nonzero;"/><path d="M1173.9,92.571c0.225,-11.075 4.067,-25.317 13.787,-25.317c8.812,0 12.429,11.079 12.429,25.317l-26.217,0Zm52.154,20.746c0.675,-3.154 0.904,-7.442 0.904,-15.333c0,-33.433 -13.758,-52.15 -37.463,-52.15c-25.071,0 -44.242,22.104 -44.242,59.142c0,34.558 16.467,54.4 46.504,54.4c11.292,0 22.796,-2.029 30.463,-4.958l-4.058,-21.204c-5.188,1.804 -12.633,3.613 -20.983,3.613c-13.108,0 -23.054,-6.325 -23.504,-23.508l52.379,0" style="fill:#08385a;fill-rule:nonzero;"/><path d="M279.204,249.65l5.863,0c7.738,0 14.167,3.096 14.167,10.583c0,7.979 -6.758,10.671 -14.083,10.671c-2.525,0 -4.562,-0.083 -5.946,-0.329l0,-20.925Zm0,-23.025c1.137,-0.246 3.017,-0.492 6.271,-0.492c7.167,0 12.046,2.525 12.046,8.963c0,5.287 -4.392,9.196 -11.883,9.196l-6.433,0l0,-17.667Zm-7.067,49.154c2.354,0.325 6.096,0.65 10.975,0.65c8.958,0 15.142,-1.633 18.962,-5.125c2.762,-2.679 4.637,-6.267 4.637,-10.983c0,-8.146 -6.096,-12.458 -11.304,-13.75l0,-0.162c5.771,-2.117 9.267,-6.754 9.267,-12.054c0,-4.312 -1.704,-7.567 -4.554,-9.679c-3.413,-2.762 -7.971,-3.983 -15.054,-3.983c-4.967,0 -9.842,0.487 -12.929,1.137l0,53.95" style="fill:#08385a;fill-rule:nonzero;"/><rect x="332.213" y="221.096" width="7.071" height="54.838" style="fill:#08385a;"/><path d="M367.55,221.096l0,32.308c0,17.008 8.45,23.421 19.688,23.421c11.887,0 20.746,-6.904 20.746,-23.746l0,-31.983l-7.15,0l0,32.471c0,12.125 -5.213,17.496 -13.354,17.496c-7.325,0 -12.779,-5.208 -12.779,-17.496l0,-32.471l-7.15,0" style="fill:#08385a;fill-rule:nonzero;"/><path d="M443.321,226.783c1.137,-0.325 3.583,-0.65 7,-0.65c7.492,0.079 12.625,3.171 12.625,10.258c0,6.267 -4.808,10.421 -12.375,10.421l-7.25,0l0,-20.029Zm-7.071,49.15l7.071,0l0,-23.767l6.675,0c6.433,0.246 9.363,3.1 10.996,10.663c1.546,6.833 2.762,11.562 3.658,13.104l7.317,0c-1.142,-2.112 -2.442,-7.404 -4.229,-15.054c-1.3,-5.696 -3.821,-9.6 -8.054,-11.067l0,-0.237c5.779,-1.95 10.329,-6.754 10.329,-14.004c0,-4.229 -1.542,-7.975 -4.304,-10.417c-3.417,-3.083 -8.304,-4.467 -15.875,-4.467c-4.883,0 -10.008,0.408 -13.583,1.142l0,54.104" style="fill:#08385a;fill-rule:nonzero;"/><path d="M518.133,225.971c11.8,0 17.5,11.392 17.5,22.3c0,12.454 -6.35,22.792 -17.583,22.792c-11.154,0 -17.5,-10.496 -17.5,-22.221c0,-12.046 5.858,-22.871 17.583,-22.871Zm0.325,-5.771c-14.654,0 -25.467,11.388 -25.467,28.8c0,16.608 10.162,27.825 24.654,27.825c14,0 25.462,-9.996 25.462,-28.883c0,-16.275 -9.675,-27.742 -24.65,-27.742" style="fill:#08385a;fill-rule:nonzero;"/><path d="M592.604,226.783c1.142,-0.325 3.583,-0.65 7.004,-0.65c7.492,0.079 12.621,3.171 12.621,10.258c0,6.267 -4.808,10.421 -12.375,10.421l-7.25,0l0,-20.029Zm-7.071,49.15l7.071,0l0,-23.767l6.679,0c6.429,0.246 9.362,3.1 10.992,10.663c1.546,6.833 2.767,11.562 3.658,13.104l7.317,0c-1.142,-2.112 -2.438,-7.404 -4.229,-15.054c-1.296,-5.696 -3.817,-9.6 -8.054,-11.067l0,-0.237c5.779,-1.95 10.329,-6.754 10.329,-14.004c0,-4.229 -1.542,-7.975 -4.304,-10.417c-3.417,-3.083 -8.3,-4.467 -15.875,-4.467c-4.883,0 -10.004,0.408 -13.583,1.142l0,54.104" style="fill:#08385a;fill-rule:nonzero;"/><path d="M656.025,253.158l5.371,-15.871c1.058,-3.342 1.95,-6.679 2.767,-9.938l0.167,0c0.808,3.175 1.621,6.433 2.842,10.013l5.371,15.796l-16.517,0Zm17.983,5.525l5.854,17.25l7.571,0l-18.717,-54.838l-8.538,0l-18.633,54.838l7.321,0l5.696,-17.25l19.446,0" style="fill:#08385a;fill-rule:nonzero;"/><path d="M747.1,268.542c-2.85,1.379 -7.242,2.279 -11.558,2.279c-13.346,0 -21.071,-8.633 -21.071,-22.058c0,-14.408 8.546,-22.629 21.4,-22.629c4.554,0 8.379,0.979 11.067,2.279l1.708,-5.779c-1.871,-0.967 -6.183,-2.433 -13.017,-2.433c-17.008,0 -28.638,11.629 -28.638,28.804c0,17.992 11.629,27.75 27.092,27.75c6.671,0 11.875,-1.304 14.479,-2.604l-1.462,-5.608" style="fill:#08385a;fill-rule:nonzero;"/><path d="M773.417,221.096l0,54.838l7.071,0l0,-25.721l26.538,0l0,25.721l7.15,0l0,-54.838l-7.15,0l0,22.95l-26.538,0l0,-22.95l-7.071,0" style="fill:#08385a;fill-rule:nonzero;"/><path d="M842.363,221.096l0,32.308c0,17.008 8.45,23.421 19.692,23.421c11.879,0 20.742,-6.904 20.742,-23.746l0,-31.983l-7.154,0l0,32.471c0,12.125 -5.208,17.496 -13.35,17.496c-7.321,0 -12.779,-5.208 -12.779,-17.496l0,-32.471l-7.15,0" style="fill:#08385a;fill-rule:nonzero;"/><path d="M917.725,275.933l0,-23.429c0,-9.125 -0.163,-15.717 -0.567,-22.629l0.242,-0.079c2.771,5.938 6.433,12.204 10.258,18.308l17.421,27.829l7.15,0l0,-54.837l-6.658,0l0,22.938c0,8.55 0.163,15.229 0.808,22.554l-0.163,0.079c-2.6,-5.613 -5.779,-11.392 -9.846,-17.821l-17.588,-27.75l-7.721,0l0,54.837l6.663,0" style="fill:#08385a;fill-rule:nonzero;"/><path d="M980.579,275.933l7.067,0l0,-20.912l5.212,-6.021l18.062,26.933l8.383,0l-21.4,-31.571l19.854,-23.267l-8.792,0l-16.763,20.579c-1.379,1.796 -2.85,3.75 -4.308,5.862l-0.25,0l0,-26.442l-7.067,0l0,54.837" style="fill:#08385a;fill-rule:nonzero;"/><path d="M1061.158,225.971c11.804,0 17.5,11.392 17.5,22.3c0,12.454 -6.346,22.792 -17.583,22.792c-11.15,0 -17.5,-10.496 -17.5,-22.221c0,-12.046 5.862,-22.871 17.583,-22.871Zm0.325,-5.771c-14.654,0 -25.463,11.388 -25.463,28.8c0,16.608 10.158,27.825 24.65,27.825c14,0 25.462,-9.996 25.462,-28.883c0,-16.275 -9.671,-27.742 -24.65,-27.742" style="fill:#08385a;fill-rule:nonzero;"/><path d="M1127.667,275.933l7.808,-28.558c2.033,-7.083 3.254,-12.454 4.229,-17.908l0.167,0c0.729,5.533 1.871,10.904 3.579,17.908l6.917,28.558l7.4,0l15.546,-54.837l-7.242,0l-7.246,27.658c-1.708,6.846 -3.25,12.95 -4.388,18.971l-0.167,0c-0.812,-5.779 -2.275,-12.287 -3.821,-18.796l-6.675,-27.833l-7.404,0l-7.321,27.667c-1.871,7.079 -3.583,13.592 -4.475,19.046l-0.162,0c-0.979,-5.292 -2.442,-12.125 -4.071,-18.962l-6.508,-27.75l-7.483,0l13.908,54.837l7.408,0" style="fill:#08385a;fill-rule:nonzero;"/><path d="M1224.517,244.371l-21.317,0l0,-17.346l22.537,0l0,-5.929l-29.612,0l0,54.837l30.833,0l0,-5.929l-23.758,0l0,-19.792l21.317,0l0,-5.842" style="fill:#08385a;fill-rule:nonzero;"/><path d="M193.729,-0l-193.729,0l0,55.362l138.367,0l55.362,-55.362" style="fill:#982b40;"/><path d="M138.367,221.463l-138.367,0l0,55.363l193.729,0l-55.362,-55.363" style="fill:#982b40;"/><rect x="0" y="110.733" width="78.25" height="55.367" style="fill:#982b40;"/></svg>